<svg xmlns="http://www.w3.org/2000/svg" width="24" height="24" viewBox="0 0 24 24"><rect width="7.4" height="7.4" rx="3.7" transform="translate(4.248 4.252)"/><rect width="7.4" height="7.4" rx="3.7" transform="translate(12.352 12.352)"/><path d="M36.344,10.63H32.812a1.932,1.932,0,0,0-1.932,1.932v3.532a1.936,1.936,0,0,0,1.932,1.932h3.532a1.936,1.936,0,0,0,1.936-1.932V12.562A1.936,1.936,0,0,0,36.344,10.63Zm.336,5.464a.336.336,0,0,1-.336.332H32.812a.332.332,0,0,1-.332-.332V12.562a.332.332,0,0,1,.332-.332h3.532a.336.336,0,0,1,.336.332Z" transform="translate(-18.528 -6.378)"/><path d="M16.088,30.88H12.556a1.936,1.936,0,0,0-1.936,1.932v3.532a1.936,1.936,0,0,0,1.936,1.936h3.532a1.936,1.936,0,0,0,1.932-1.936V32.812a1.936,1.936,0,0,0-1.932-1.932Zm.332,5.464a.336.336,0,0,1-.332.336H12.556a.34.34,0,0,1-.336-.336V32.812a.336.336,0,0,1,.336-.332h3.532a.332.332,0,0,1,.332.332Z" transform="translate(-6.372 -18.528)"/><rect width="24" height="24" fill="none"/></svg>