<svg xmlns="http://www.w3.org/2000/svg" width="24" height="24" viewBox="0 0 24 24"><path d="M25.071,11.766a.592.592,0,0,0-.528-.168l-1.948.336a.6.6,0,0,0-.324,1.016l.24.24-3.6,3.6-.4-2a.8.8,0,0,0-1.348-.4l-1.792,1.788a4.508,4.508,0,0,0-.72-.564,4.3,4.3,0,0,0,1.5-1.308.6.6,0,0,0-.136-.836l-2-1.436,2.4-.64a.592.592,0,0,0,.364-.28.6.6,0,0,0,.06-.456,4.34,4.34,0,1,0-6.456,4.8A4.308,4.308,0,0,0,8.111,19.25v4.216l-1.46,1.452a.8.8,0,1,0,1.132,1.128L8.935,24.89h6.976a.8.8,0,0,0,.8-.8V19.27a4.272,4.272,0,0,0-.4-1.764l.92-.92.38,2a.8.8,0,0,0,1.352.4l4.68-4.664.24.24a.6.6,0,0,0,.424.176.564.564,0,0,0,.18-.028.6.6,0,0,0,.4-.468l.336-1.952A.588.588,0,0,0,25.071,11.766Z" transform="translate(-3.851 -4.446)"/><rect width="24" height="24" fill="none"/></svg>