<svg xmlns="http://www.w3.org/2000/svg" width="24" height="24" viewBox="0 0 24 24"><path d="M25.618,10.02h-2v-2a.8.8,0,0,0-.8-.8H12.89a.8.8,0,0,0-.8.8V21.844a.8.8,0,0,0,.8.8h2v2a.8.8,0,0,0,.8.8h9.928a.8.8,0,0,0,.8-.8V10.82A.8.8,0,0,0,25.618,10.02Zm-7.132,1.832L20.738,9.6a.4.4,0,1,1,.564.564l-2.248,2.252a.4.4,0,1,1-.568-.564Zm-.224,2.172a.564.564,0,0,1,.568-.564h2.132a.568.568,0,0,1,.568.564v2.132a.568.568,0,0,1-.568.576H18.83a.564.564,0,0,1-.568-.568Zm2.84,4.432a.4.4,0,0,1-.4.4h-6.1a.4.4,0,1,1,0-.8h6.1a.4.4,0,0,1,.4.4ZM14.178,9.932a.568.568,0,0,1,.568-.568h2.132a.564.564,0,0,1,.568.568v2.132a.568.568,0,0,1-.568.568H14.746a.572.572,0,0,1-.568-.568Zm0,4.08a.568.568,0,0,1,.568-.564h2.132a.564.564,0,0,1,.568.564v2.132a.564.564,0,0,1-.568.588H14.746a.568.568,0,0,1-.568-.568Zm.428,6.644a.4.4,0,1,1,0-.8h3.248a.4.4,0,0,1,0,.8Zm10.212,3.176H16.49v-1.2h6.328a.8.8,0,0,0,.8-.8V11.62h1.2Z" transform="translate(-7.254 -4.332)"/><rect width="24" height="24" fill="none"/></svg>