<svg xmlns="http://www.w3.org/2000/svg" width="24" height="24" viewBox="0 0 24 24"><path d="M25.282,26.9a.719.719,0,0,0,0-.088.648.648,0,0,0,0-.076.508.508,0,0,0-.024-.072.352.352,0,0,0-.036-.08.168.168,0,0,0,0-.04l-2.44-4.228a.8.8,0,0,0-.7-.4h-2.46a.8.8,0,1,0,0,1.6h1.96L23.1,26.148H8.454L9.97,23.52h1.96a.8.8,0,1,0,0-1.6H9.53a.8.8,0,0,0-.7.4l-2.46,4.228a.168.168,0,0,0,0,.04.352.352,0,0,0-.036.08.508.508,0,0,0-.04.084.648.648,0,0,0,0,.076.72.72,0,0,0,0,.088.172.172,0,0,0,0,.044v4.52a.8.8,0,0,0,.8.8H24.49a.8.8,0,0,0,.8-.8V26.948A.172.172,0,0,0,25.282,26.9Z" transform="translate(-3.778 -13.152)"/><path d="M25.436,16.088a.8.8,0,0,0,1.128,0l1.868-1.864A.8.8,0,1,0,27.3,13.092l-.5.5V10.72a.8.8,0,0,0-1.6,0v2.872l-.5-.5a.8.8,0,1,0-1.132,1.132Z" transform="translate(-14 -5.952)"/><rect width="24" height="24" fill="none"/></svg>