<svg xmlns="http://www.w3.org/2000/svg" width="24" height="24" viewBox="0 0 24 24"><path d="M25.642,24.62H13.01a.8.8,0,0,0-.8.8v2.7a.8.8,0,0,0,.8.8H25.642a.8.8,0,0,0,.8-.8v-2.7A.8.8,0,0,0,25.642,24.62Zm-10,3.112H14.206a.34.34,0,0,1-.292-.512l.708-1.228a.34.34,0,0,1,.588,0l.708,1.228a.34.34,0,0,1-.3.512Z" transform="translate(-7.326 -14.772)"/><path d="M25.642,9.87H13.01a.8.8,0,0,0-.8.8v2.7a.8.8,0,0,0,.8.8H25.642a.8.8,0,0,0,.8-.8v-2.7A.8.8,0,0,0,25.642,9.87ZM14.926,13.05a1.028,1.028,0,1,1,1.028-1.028,1.028,1.028,0,0,1-1.028,1.028Z" transform="translate(-7.326 -5.922)"/><path d="M25.642,39.37H13.01a.8.8,0,0,0-.8.8v2.7a.8.8,0,0,0,.8.8H25.642a.8.8,0,0,0,.8-.8v-2.7A.8.8,0,0,0,25.642,39.37Zm-9.716,2.824a.34.34,0,0,1-.34.34h-1.34a.34.34,0,0,1-.34-.34v-1.34a.34.34,0,0,1,.34-.34h1.34a.34.34,0,0,1,.34.34Z" transform="translate(-7.326 -23.622)"/><rect width="24" height="24" fill="none"/></svg>