<svg xmlns="http://www.w3.org/2000/svg" width="24" height="24" viewBox="0 0 24 24"><path d="M8.11,10.807a.516.516,0,0,1,.564.532.9.9,0,0,1-.244.5,1.784,1.784,0,0,0-.4.884,1.468,1.468,0,0,1,1.3,1.492,1.556,1.556,0,0,1-1.6,1.544,1.6,1.6,0,0,1-1.64-1.624,3.632,3.632,0,0,1,1.6-3.2.908.908,0,0,1,.42-.124Zm3.724,0a.516.516,0,0,1,.564.532.9.9,0,0,1-.24.5,1.76,1.76,0,0,0-.4.884,1.472,1.472,0,0,1,1.3,1.492,1.56,1.56,0,0,1-1.6,1.544,1.6,1.6,0,0,1-1.636-1.624,3.623,3.623,0,0,1,1.6-3.2A.908.908,0,0,1,11.834,10.807Z" transform="translate(-3.654 -6.483)"/><path d="M38.559,41.767a.516.516,0,0,1-.544-.532.876.876,0,0,1,.244-.5,1.784,1.784,0,0,0,.4-.884,1.468,1.468,0,0,1-1.3-1.492,1.556,1.556,0,0,1,1.6-1.544,1.6,1.6,0,0,1,1.64,1.624,3.632,3.632,0,0,1-1.6,3.2A.908.908,0,0,1,38.559,41.767Zm3.672,0a.512.512,0,0,1-.56-.532.9.9,0,0,1,.24-.5,1.784,1.784,0,0,0,.4-.884,1.468,1.468,0,0,1-1.3-1.492,1.56,1.56,0,0,1,1.6-1.544,1.6,1.6,0,0,1,1.64,1.624,3.632,3.632,0,0,1-1.6,3.2A.908.908,0,0,1,42.231,41.767Z" transform="translate(-22.415 -22.091)"/><path d="M28.676,15.019l-1.4-.8a.8.8,0,0,0-1.092.292l-4.72,8.168,2.8,1.6,4.72-8.172A.8.8,0,0,0,28.676,15.019Z" transform="translate(-12.876 -8.467)"/><path d="M21.633,39.744h-.02l-.028.024L19.5,41.8a.8.8,0,0,1-1.336-.772l.72-2.808V38.16Z" transform="translate(-10.881 -22.896)"/><rect width="24" height="24" fill="none"/></svg>