<svg xmlns="http://www.w3.org/2000/svg" width="24" height="24" viewBox="0 0 24 24"><path d="M12.632,18.988a2.976,2.976,0,1,0-2.728,0A3.6,3.6,0,0,0,7.68,22.3v3.844a.8.8,0,0,0,.8.8h5.6a.8.8,0,0,0,.8-.8V22.3a3.6,3.6,0,0,0-2.248-3.316Z" transform="translate(-4.608 -8.02)"/><path d="M36.292,18H28.56a.8.8,0,1,0,0,1.6h7.732a.336.336,0,0,1,.336.332v6.5a.34.34,0,0,1-.336.336H29.36a.8.8,0,0,0,0,1.6h6.932a1.936,1.936,0,0,0,1.936-1.936V19.912A1.936,1.936,0,0,0,36.292,18Z" transform="translate(-16.656 -10.8)"/><path d="M33.72,27.06h3.724a.8.8,0,0,0,0-1.6H33.72a.8.8,0,0,0,0,1.6Z" transform="translate(-19.752 -15.276)"/><path d="M33.72,33.99h3.724a.8.8,0,1,0,0-1.6H33.72a.8.8,0,0,0,0,1.6Z" transform="translate(-19.752 -19.434)"/><rect width="24" height="24" fill="none"/></svg>