<svg xmlns="http://www.w3.org/2000/svg" width="24" height="24" viewBox="0 0 24 24"><path d="M26.149,24.541l-6.5-7.388a.644.644,0,0,0-.16-.136l-.58-1.084a3.746,3.746,0,0,0,2.448-1.944c.364-1.232,1.108-1.26,1.18-1.252a.6.6,0,0,0,.52-.96,3.176,3.176,0,0,0-2.008-1.18,2.8,2.8,0,0,0-2.188.8c-1.244,1.108-2.056.54-2.152.468h0a.6.6,0,0,0-.164-.092h-.024a.652.652,0,0,0-.176-.032h-.028a.7.7,0,0,0-.176.028h-.02l-.076.028a.452.452,0,0,0-.084.06h0a.844.844,0,0,0-.124.144.084.084,0,0,1,0,.024.82.82,0,0,0-.064.164v.032a.516.516,0,0,0,0,.176.08.08,0,0,0,0,.028.5.5,0,0,0,.06.18L18.341,17.3l-6.4,7.244a.8.8,0,0,0,.6,1.328H25.549a.8.8,0,0,0,.6-1.328ZM19.637,12.309a1.688,1.688,0,0,1,1.26-.52,1.424,1.424,0,0,1,.46.128A2.968,2.968,0,0,0,20.2,13.645a3.041,3.041,0,0,1-1.88,1.2l-.832-1.552A3.464,3.464,0,0,0,19.637,12.309Zm-2.516,8.444,1.924-2.172,1.924,2.172Z" transform="translate(-7.045 -6.353)"/><rect width="24" height="24" fill="none"/></svg>