<svg xmlns="http://www.w3.org/2000/svg" width="24" height="24" viewBox="0 0 24 24"><path d="M14.63,11H12.046a.676.676,0,0,0-.676.672V14.26a.676.676,0,0,0,.676.676H14.63a.676.676,0,0,0,.676-.676v-2.6A.676.676,0,0,0,14.63,11Z" transform="translate(-6.822 -6.6)" fill="none"/><path d="M24.022,12.378a.624.624,0,0,0-.112-.064l-.076-.04c-.06-.028-.12-.06-.184-.084L13.5,7.33a2.3,2.3,0,0,0-1.268-.4H9.646A2.276,2.276,0,0,0,7.37,9.2V11.79a2.268,2.268,0,0,0,.4,1.3l4.8,10.044a1.976,1.976,0,0,0,.268.516l.072.084a1.928,1.928,0,0,0,1.512.716h4.256a.8.8,0,1,0,0-1.6H15.546a1.464,1.464,0,0,1-1.256-.72l-.08-7.6a1.468,1.468,0,0,1,1.012-.848l7.232.128a1.464,1.464,0,0,1,.8,1.3v3.136a.8.8,0,0,0,1.6,0V13.986A1.932,1.932,0,0,0,24.022,12.378Zm-11.116-.572a.676.676,0,0,1-.676.676H9.646a.676.676,0,0,1-.676-.676V9.218a.676.676,0,0,1,.676-.66H12.23a.676.676,0,0,1,.676.672Z" transform="translate(-4.422 -4.158)"/><path d="M44.743,37.778,40.551,35.09a.8.8,0,0,0-1.232.712l.244,4.98a.8.8,0,0,0,.4.66.752.752,0,0,0,.4.1.8.8,0,0,0,.4-.108l1.024-.592L42.455,42a.8.8,0,0,0,.484.372.744.744,0,0,0,.208.028.8.8,0,0,0,.4-.108l.512-.3a.8.8,0,0,0,.292-1.092l-.664-1.156,1.02-.588a.814.814,0,0,0,.036-1.38Z" transform="translate(-23.591 -20.978)"/><rect width="24" height="24" fill="none"/></svg>