<svg xmlns="http://www.w3.org/2000/svg" width="24" height="24" viewBox="0 0 24 24"><path d="M36.564,16.748A3.976,3.976,0,0,0,33.74,10a.8.8,0,0,0,0,1.6,2.368,2.368,0,0,1,1.028,4.5.8.8,0,0,0,.056,1.464,2.952,2.952,0,0,1,1.88,2.756v4.084H35.168a.8.8,0,0,0,0,1.6h1.544a1.6,1.6,0,0,0,1.6-1.6V20.32a4.528,4.528,0,0,0-1.748-3.572Z" transform="translate(-19.764 -6)"/><path d="M18.9,16.74A3.52,3.52,0,0,0,17.464,10a3.636,3.636,0,0,0-.96.136l.908.908a.7.7,0,0,1-.984.992l-1.2-1.2a3.628,3.628,0,0,0-.624.684l1.2,1.2a.7.7,0,0,1-.988.988l-.776-.776a3.488,3.488,0,0,0,1.988,3.808,3.976,3.976,0,0,0-.92.488l1.364,1.364a.7.7,0,1,1-.988.988l-1.372-1.368a4.1,4.1,0,0,0-.46.844l1.2,1.176a.7.7,0,1,1-.992.992l-.48-.484v4.38a.8.8,0,0,0,.8.8h6.584a.8.8,0,0,0,.8-.8V20.576A4.1,4.1,0,0,0,18.9,16.74Z" transform="translate(-8.028 -6)"/><rect width="24" height="24" fill="none"/></svg>