<svg xmlns="http://www.w3.org/2000/svg" width="24" height="24" viewBox="0 0 24 24"><path d="M24.229,19.278H21.953V9.25a.8.8,0,0,0-.8-.8H10.081a.8.8,0,0,0-.8.8v2.108c-2.64.044-5.2.744-5.4,2.236a1.088,1.088,0,0,0,0,.168v7.476a1.2,1.2,0,0,0,0,.168c.188,1.528,2.88,2.224,5.6,2.24a3.072,3.072,0,0,0,2.872,2h9.972a.8.8,0,0,0,.372-.1,3.076,3.076,0,0,0,2.324-2.972v-2.5a.8.8,0,0,0-.8-.8ZM5.469,15.514a11.08,11.08,0,0,0,3.812.652V18.3c-2.276-.04-3.58-.6-3.812-.872Zm0,3.736a11.08,11.08,0,0,0,3.812.652v2.14c-2.276-.04-3.58-.6-3.812-.876Zm6.86,4.8a1.468,1.468,0,0,1-1.464-1.468V10.05h9.488V22.578a3.036,3.036,0,0,0,.376,1.468Z" transform="translate(-2.329 -5.07)"/><path d="M31.69,17.51a.8.8,0,0,1-.8.8H26.37a.8.8,0,1,1,0-1.6h4.52A.8.8,0,0,1,31.69,17.51Z" transform="translate(-15.342 -10.026)"/><path d="M31.69,25.24a.8.8,0,0,1-.8.8H26.37a.8.8,0,0,1-.768-.564.764.764,0,0,1-.032-.216.8.8,0,0,1,.8-.8h4.52A.8.8,0,0,1,31.69,25.24Z" transform="translate(-15.342 -14.676)"/><path d="M29.173,32.91a.8.8,0,0,1-.8.8h-2a.8.8,0,0,1,0-1.6h2A.8.8,0,0,1,29.173,32.91Z" transform="translate(-15.345 -19.266)"/><rect width="24" height="24" fill="none"/></svg>