<svg xmlns="http://www.w3.org/2000/svg" width="24" height="24" viewBox="0 0 24 24"><path d="M25.618,10.02h-2v-2a.8.8,0,0,0-.8-.8H12.89a.8.8,0,0,0-.8.8v5.2l2.488-2.488-.236-.24a.6.6,0,0,1,.32-1.016l1.948-.344a.6.6,0,0,1,.7.7l-.34,1.948a.6.6,0,0,1-.4.468.588.588,0,0,1-.184.028.6.6,0,0,1-.424-.176l-.24-.24-3.6,3.624v2.532l1.876-1.876a.8.8,0,0,1,1.332.34l.288.972,2.908-2.912-.236-.24a.592.592,0,0,1-.148-.6.608.608,0,0,1,.468-.4l1.948-.336a.592.592,0,0,1,.5.176.6.6,0,0,1,.168.524l-.34,1.952a.6.6,0,0,1-.4.468.588.588,0,0,1-.184.028.6.6,0,0,1-.424-.176l-.24-.24-3.872,3.844a.8.8,0,0,1-1.332-.34l-.288-.972L12.09,20.272v1.572a.8.8,0,0,0,.8.8h2v2a.8.8,0,0,0,.8.8h9.928a.8.8,0,0,0,.8-.8V10.82A.8.8,0,0,0,25.618,10.02Zm-.8,13.824H16.49v-1.2h6.328a.8.8,0,0,0,.8-.8V11.62h1.2Z" transform="translate(-7.254 -4.332)"/><rect width="24" height="24" fill="none"/></svg>