<svg xmlns="http://www.w3.org/2000/svg" width="24" height="24" viewBox="0 0 24 24"><path d="M19.325,20.029a1.168,1.168,0,0,0-1.6-.424l-1.244.72a.5.5,0,0,1-.4.052.528.528,0,0,1-.316-.24l-2.9-5.048a.528.528,0,0,1,.192-.716l1.248-.716a1.168,1.168,0,0,0,.424-1.6L12.953,8.993a1.164,1.164,0,0,0-1.6-.424L9.913,9.4a4.528,4.528,0,0,0-1.64,6.184l4.8,8.28a4.524,4.524,0,0,0,6.164,1.656l1.44-.828a1.16,1.16,0,0,0,.54-.708,1.148,1.148,0,0,0-.116-.88Z" transform="translate(-4.597 -5.045)"/><path d="M39.552,14.747a.8.8,0,0,0-.644-.544l-2.08-.3L35.9,12.015a.8.8,0,0,0-1.432,0L33.532,13.9l-2.08.3a.8.8,0,0,0-.444,1.364l1.5,1.468L32.16,19.1a.8.8,0,0,0,1.16.86l1.86-.976,1.86.976a.764.764,0,0,0,.372.092.8.8,0,0,0,.8-.936l-.356-2.068,1.508-1.468A.8.8,0,0,0,39.552,14.747Zm-3.124,1.432a.8.8,0,0,0-.232.708l.152.892-.8-.42a.8.8,0,0,0-.744,0l-.8.42.152-.892a.8.8,0,0,0-.228-.708l-.648-.628.9-.128a.8.8,0,0,0,.6-.44l.4-.8.4.8a.8.8,0,0,0,.6.44l.892.128Z" transform="translate(-18.46 -6.943)"/><rect width="24" height="24" fill="none"/></svg>