<svg xmlns="http://www.w3.org/2000/svg" width="24" height="24" viewBox="0 0 24 24"><path d="M26.15,11.238a.8.8,0,0,0-.716-.116c-.032,0-3.272,1.008-5.544-.576a.8.8,0,0,0-.912,0c-2.272,1.6-5.512.584-5.54.576a.8.8,0,0,0-1.048.76V20.03a.828.828,0,0,0,.052.28,10.432,10.432,0,0,0,6.8,6.536.748.748,0,0,0,.376,0,10.432,10.432,0,0,0,6.8-6.536.828.828,0,0,0,.052-.28V11.882A.8.8,0,0,0,26.15,11.238Zm-1.272,8.644a8.912,8.912,0,0,1-5.444,5.356h0V18.2H13.99V12.89a8.356,8.356,0,0,0,5.444-.74V18.2h5.444Z" transform="translate(-7.434 -6.242)"/><rect width="24" height="24" fill="none"/></svg>