<svg xmlns="http://www.w3.org/2000/svg" width="24" height="24" viewBox="0 0 24 24"><path d="M26.594,12.978a.58.58,0,0,0-.524-.168l-1.952.34a.6.6,0,0,0-.32,1.012l.24.24-3.6,3.6-.4-2a.8.8,0,0,0-1.352-.412l-2.84,2.84L14.962,16.9h0a.6.6,0,0,1-.06-.468.612.612,0,0,1,.288-.38l1.132-.652a.916.916,0,0,0,.336-1.244l-1.6-2.8a.912.912,0,0,0-1.264-.316l-1.3.756a3.976,3.976,0,0,0-1.456,5.424l2.208,3.824-2.684,2.7a.8.8,0,1,0,1.132,1.132l2.4-2.4,1.3,2.268A3.972,3.972,0,0,0,20.822,26.2l1.308-.756a.916.916,0,0,0,.332-1.244l-1.6-2.8a.916.916,0,0,0-1.244-.332l-1.16.676a.624.624,0,0,1-.848-.228l-.936-1.6,2.08-2.08.4,2a.8.8,0,0,0,1.352.412l4.644-4.712.24.24a.588.588,0,0,0,.424.176.564.564,0,0,0,.18-.028.608.608,0,0,0,.4-.468L26.73,13.5a.592.592,0,0,0-.136-.524Z" transform="translate(-6.194 -6.542)"/><rect width="24" height="24" fill="none"/></svg>