<svg xmlns="http://www.w3.org/2000/svg" width="24" height="24" viewBox="0 0 24 24"><path d="M27.034,25.892,25.222,24.46a.6.6,0,0,0-.972.472v.4H21.538v.4a.588.588,0,0,1-.336.532.608.608,0,0,1-.636-.068l-1.808-1.452a.6.6,0,0,1,0-.944l1.808-1.432A.612.612,0,0,1,21.2,22.3a.592.592,0,0,1,.336.54v.4h2.74V16.8a.8.8,0,0,0-.8-.8H8.93a.8.8,0,0,0-.8.8v9.8a.8.8,0,0,0,.8.8H24.25v.4a.6.6,0,0,0,.972.472l1.812-1.432a.6.6,0,0,0,0-.944ZM9.73,18.476H22.682V20.62H9.73Z" transform="translate(-4.878 -9.6)"/><rect width="24" height="24" fill="none"/></svg>