<svg xmlns="http://www.w3.org/2000/svg" width="24" height="24" viewBox="0 0 24 24"><path d="M25.618,10.02h-2v-2a.8.8,0,0,0-.8-.8H12.89a.8.8,0,0,0-.8.8V21.844a.8.8,0,0,0,.8.8h2v2a.8.8,0,0,0,.8.8h9.928a.8.8,0,0,0,.8-.8V10.82A.8.8,0,0,0,25.618,10.02Zm-10.9,5.428a.8.8,0,0,1,1.132-1.116l1.036,1.032L19.858,12.4a.8.8,0,1,1,1.132,1.128l-3.54,3.54a.806.806,0,0,1-1.132,0Zm10.1,8.4H16.49v-1.2h6.328a.8.8,0,0,0,.8-.8V11.62h1.2Z" transform="translate(-7.254 -4.332)"/><rect width="24" height="24" fill="none"/></svg>