<svg xmlns="http://www.w3.org/2000/svg" width="24" height="24" viewBox="0 0 24 24"><path d="M32.546,16.32H18.678a.8.8,0,0,0-.8.8v9.844a.6.6,0,0,0,0,.084v.072l.024.076a.4.4,0,0,0,.032.072l.036.068.048.068a.344.344,0,0,0,.028.04h0l.08.072.048.04a.684.684,0,0,0,.092.052l.048.028.128.04h.028a.736.736,0,0,0,.164,0H32.546a.736.736,0,0,0,.164,0h.028l.128-.04.048-.028a.684.684,0,0,0,.092-.052l.048-.04.08-.072h0a.344.344,0,0,0,.028-.04l.048-.068.036-.068a.4.4,0,0,0,.032-.072l.024-.076a.464.464,0,0,0,0-.072.6.6,0,0,0,0-.084V17.12A.8.8,0,0,0,32.546,16.32Zm-13.068,2.3L23.2,21.9l-3.724,3.256Zm1.332,7.492,3.6-3.148h0a1.8,1.8,0,0,0,2.38,0h0l3.6,3.148Zm10.936-.96L28.022,21.9l3.724-3.276Z" transform="translate(-10.726 -9.792)"/><path d="M6.688,28.57H3.34a.8.8,0,0,0,0,1.6H6.688a.8.8,0,1,0,0-1.6Z" transform="translate(-1.524 -17.142)"/><path d="M8.488,35.74H6.34a.8.8,0,1,0,0,1.6H8.488a.8.8,0,1,0,0-1.6Z" transform="translate(-3.324 -21.444)"/><path d="M8.488,21.39H6.34a.8.8,0,1,0,0,1.6H8.488a.8.8,0,1,0,0-1.6Z" transform="translate(-3.324 -12.834)"/><rect width="24" height="24" fill="none"/></svg>