<svg xmlns="http://www.w3.org/2000/svg" width="24" height="24" viewBox="0 0 24 24"><path d="M24.6,14.591h0a4.556,4.556,0,0,0-6.6,0l-.168.184-.168-.184a4.556,4.556,0,0,0-6.6,0,4.9,4.9,0,0,0,0,6.752l6.188,6.4a.8.8,0,0,0,1.152,0l6.188-6.4A4.9,4.9,0,0,0,24.6,14.591Zm-4,6.228a.564.564,0,0,1-.568.564H18.877v1.148a.564.564,0,0,1-.568.576h-.952a.564.564,0,0,1-.568-.568V21.383H15.641a.564.564,0,0,1-.568-.564v-.956a.564.564,0,0,1,.568-.568h1.148V18.147a.568.568,0,0,1,.568-.568h.952a.568.568,0,0,1,.568.568v1.148h1.148a.564.564,0,0,1,.568.568Z" transform="translate(-5.833 -7.907)"/><rect width="24" height="24" fill="none"/></svg>