<svg xmlns="http://www.w3.org/2000/svg" width="24" height="24" viewBox="0 0 24 24"><path d="M29.179,26.987a1.112,1.112,0,0,0-.548.148,1.16,1.16,0,0,0-1.736-.588,1.14,1.14,0,0,0-1.576-.436v-2.8a.968.968,0,0,0-1.932,0V28.4l-.024.044-.4-.708a1.17,1.17,0,1,0-2.024,1.176l2.488,4.312.024.032a1.716,1.716,0,0,0,.872.72v.572a.828.828,0,0,0,.828.828h3.48a.828.828,0,0,0,.828-.828v-.708a1.74,1.74,0,0,0,.8-.94,1.1,1.1,0,0,0,.1-.476V28.155a1.168,1.168,0,0,0-1.184-1.168Z" transform="translate(-12.467 -13.443)"/><path d="M28.15,7.628a.6.6,0,0,0,.6-.6V5.76a.6.6,0,1,0-1.2,0V7.028A.6.6,0,0,0,28.15,7.628Z" transform="translate(-16.53 -3.096)"/><path d="M19.312,10.315a.588.588,0,0,0,.424.176.58.58,0,0,0,.424-.176.6.6,0,0,0,0-.848l-.9-.9a.607.607,0,1,0-.848.868Z" transform="translate(-10.94 -5.039)"/><path d="M16.428,17.85a.6.6,0,0,0-.6-.6H14.56a.6.6,0,0,0,0,1.2h1.268a.6.6,0,0,0,.6-.6Z" transform="translate(-8.376 -10.35)"/><path d="M19.157,24.479a.608.608,0,0,0-.852,0l-.9.9a.6.6,0,0,0,.852.852l.9-.9A.608.608,0,0,0,19.157,24.479Z" transform="translate(-10.357 -14.583)"/><path d="M36.47,19.34a.6.6,0,0,0,.6.6h1.264a.6.6,0,1,0,0-1.2H37.082a.6.6,0,0,0-.612.6Z" transform="translate(-21.882 -11.244)"/><path d="M34.763,11.518a.6.6,0,0,0,.424-.176l.912-.9a.6.6,0,1,0-.848-.848l-.912.9a.6.6,0,0,0,0,.848.612.612,0,0,0,.424.176Z" transform="translate(-20.499 -5.642)"/><rect width="24" height="24" fill="none"/></svg>