<svg xmlns="http://www.w3.org/2000/svg" width="24" height="24" viewBox="0 0 24 24"><path d="M25.618,10.02h-2v-2a.8.8,0,0,0-.8-.8H12.89a.8.8,0,0,0-.8.8V21.844a.8.8,0,0,0,.8.8h2v2a.8.8,0,0,0,.8.8h9.928a.8.8,0,0,0,.8-.8V10.82A.8.8,0,0,0,25.618,10.02ZM15.274,13.972A2,2,0,0,1,16,11.26l.652-.38a.46.46,0,0,1,.624.168l.8,1.4a.456.456,0,0,1-.164.624l-.568.324a.312.312,0,0,0-.092.424l1.328,2.3a.3.3,0,0,0,.188.144.3.3,0,0,0,.236-.032l.564-.328a.46.46,0,0,1,.624.168l.8,1.4a.456.456,0,0,1-.164.624l-.656.376a1.98,1.98,0,0,1-2.712-.728Zm9.544,9.872H16.49v-1.2h6.328a.8.8,0,0,0,.8-.8V11.62h1.2Z" transform="translate(-7.254 -4.332)"/><rect width="24" height="24" fill="none"/></svg>