<svg xmlns="http://www.w3.org/2000/svg" width="24" height="24" viewBox="0 0 24 24"><path d="M23.754,25.093a4.172,4.172,0,0,0-1.816-7.2v-.544a1.368,1.368,0,0,0-1.368-1.368H9.962l-2.4-2.78A.8.8,0,0,0,6.2,14l.7,2H5.7A1.368,1.368,0,0,0,4.35,17.349v4.872a1.368,1.368,0,0,0,1.364,1.368H17.138a4.184,4.184,0,0,0,3.848,2.56,4.1,4.1,0,0,0,1.388-.244l1.1,1.9a.8.8,0,1,0,1.384-.8ZM8.9,20.493a.7.7,0,1,1,.5-.2.7.7,0,0,1-.5.2Zm3.44,0a.7.7,0,1,1,.5-.2.7.7,0,0,1-.5.2Zm3.44,0a.7.7,0,1,1,.5-.2.7.7,0,0,1-.5.2Zm7.144,3.168a2.6,2.6,0,0,1-.624.52,2.552,2.552,0,0,1-.748.3,2.428,2.428,0,0,1-.568.068,2.588,2.588,0,1,1,1.94-.888Z" transform="translate(-2.61 -7.749)"/><rect width="24" height="24" fill="none"/></svg>