<svg xmlns="http://www.w3.org/2000/svg" width="24" height="24" viewBox="0 0 24 24"><path d="M27.384,45h-3a.8.8,0,1,0,0,1.6h3a.8.8,0,1,0,0-1.6Z" transform="translate(-14.148 -27)"/><path d="M13.28,41.4h-1.6V39.8a.8.8,0,0,0-1.6,0v2.4a.8.8,0,0,0,.8.8h2.4a.8.8,0,1,0,0-1.6Z" transform="translate(-6.048 -23.4)"/><path d="M10.88,28.6a.8.8,0,0,0,.8-.8v-3a.8.8,0,0,0-1.6,0v3a.8.8,0,0,0,.8.8Z" transform="translate(-6.048 -14.4)"/><path d="M10.88,14.51a.8.8,0,0,0,.8-.8v-1.6h1.6a.8.8,0,0,0,0-1.6h-2.4a.8.8,0,0,0-.8.8v2.4A.8.8,0,0,0,10.88,14.51Z" transform="translate(-6.048 -6.306)"/><path d="M27.384,10.51h-3a.8.8,0,1,0,0,1.6h3a.8.8,0,1,0,0-1.6Z" transform="translate(-14.148 -6.306)"/><path d="M39.39,12.11h1.6v1.6a.8.8,0,0,0,1.6,0v-2.4a.8.8,0,0,0-.8-.8h-2.4a.8.8,0,0,0,0,1.6Z" transform="translate(-23.154 -6.306)"/><path d="M45.39,24a.8.8,0,0,0-.8.8v3a.8.8,0,0,0,1.6,0v-3A.8.8,0,0,0,45.39,24Z" transform="translate(-26.754 -14.4)"/><path d="M17.25,18.028V21.02a.34.34,0,0,0,.58.244l2.98-2.98a.344.344,0,0,0-.24-.584H17.59A.34.34,0,0,0,17.25,18.028Z" transform="translate(-10.35 -10.62)"/><path d="M41.083,40.488l1.672-1.676a.8.8,0,0,0-1.132-1.124L39.951,39.36l-1.672-1.672a.8.8,0,0,0-1.132,1.128l1.672,1.672-1.672,1.68a.8.8,0,1,0,1.132,1.12l1.672-1.672,1.672,1.672a.8.8,0,0,0,1.132-1.12Z" transform="translate(-22.115 -22.488)"/><rect width="24" height="24" fill="none"/></svg>