<svg xmlns="http://www.w3.org/2000/svg" width="24" height="24" viewBox="0 0 24 24"><path d="M15.488,34a.484.484,0,1,0,.48.484.484.484,0,0,0-.48-.484Z" transform="translate(-9 -20.4)"/><path d="M20.318,34a.48.48,0,1,0,.341.142A.484.484,0,0,0,20.318,34Z" transform="translate(-11.898 -20.4)"/><path d="M24.574,22.244a4.16,4.16,0,0,0,.16-6.108v-5.78a.8.8,0,0,0-.8-.8H16.4V7.8a.8.8,0,0,0-.8-.8H12.766a.8.8,0,0,0-.8.8V9.576H8.69a.8.8,0,0,0-.8.8V20.552a.8.8,0,0,0,.8.8h9.6A4.156,4.156,0,0,0,23.2,23.06l1.092,1.9a.8.8,0,0,0,.7.4.772.772,0,0,0,.4-.108.8.8,0,0,0,.292-1.092Zm-6.94-3.12a4.032,4.032,0,0,0,.052.628H9.49v-8.6h2.476v.96h-.8a.8.8,0,0,0-.5,1.428l3.012,2.38a.8.8,0,0,0,.992,0l3.012-2.38a.8.8,0,0,0-.5-1.428h-.8v-.96h6.744v4a4.176,4.176,0,0,0-5.488,3.964ZM21.81,21.7a2.576,2.576,0,1,1,2.576-2.576A2.576,2.576,0,0,1,21.81,21.7Z" transform="translate(-4.734 -4.2)"/><path d="M25.148,34a.484.484,0,1,0,.48.484.484.484,0,0,0-.48-.484Z" transform="translate(-14.796 -20.4)"/><rect width="24" height="24" fill="none"/></svg>