<svg xmlns="http://www.w3.org/2000/svg" xmlns:xlink="http://www.w3.org/1999/xlink" width="53.155" height="59.9" viewBox="0 0 53.155 59.9"><defs><linearGradient id="a" x1="0.5" y1="-0.001" x2="0.5" y2="0.995" gradientUnits="objectBoundingBox"><stop offset="0" stop-color="#805e9a"/><stop offset="1" stop-color="#404a82"/></linearGradient></defs><ellipse cx="15.056" cy="15.583" rx="15.056" ry="15.583" transform="translate(8 18.796) rotate(-15.005)" fill="#ffe84a"/><path d="M50.423,23.559a24.615,24.615,0,0,0-4.248-8.643l-2.616,6.956-6.111-6.109,1.484-1.484,3.8,3.807,2.735-7.262,2.933,2.93L53.155,0,47.083,6.072l-1.61-1.613L40.412,9.53A24.683,24.683,0,0,0,6.983,44.984L9.6,38.028l6.109,6.109-1.484,1.484-3.8-3.807L7.687,49.079,4.752,46.146,0,59.9l6.072-6.072,1.61,1.61,5.063-5.069A24.668,24.668,0,0,0,50.423,23.559ZM23.334,36.587,12.051,25.3A15.378,15.378,0,0,1,15.005,20l12.45,12.468Zm4.9-14.924-4.126,4.126-7.431-7.431a15.151,15.151,0,0,1,5.309-2.944Zm5.28-5.28-3.625,3.622L24.7,14.818a15.19,15.19,0,0,1,8.825,1.55ZM11.835,33.9a15.222,15.222,0,0,1-.393-5.89L21.679,38.245,17.622,42.3A15.193,15.193,0,0,1,11.835,33.9ZM30.528,44.694a15.206,15.206,0,0,1-10.84-1.135L35.5,27.746l-1.6-1.713c-2.08,1.814-3.992,2.669-5.684,2.54a3.92,3.92,0,0,1-2.252-.913l-.206-.206,9.818-9.815a15.256,15.256,0,0,1-5.05,27.057Z" fill="url(#a)"/></svg>