<svg xmlns="http://www.w3.org/2000/svg" width="24" height="24" viewBox="0 0 24 24"><path d="M15.94,35.37a.748.748,0,1,0,.531.221.754.754,0,0,0-.531-.221Z" transform="translate(-9.276 -21.614)"/><path d="M20.77,35.37a.754.754,0,1,0,.748.754.754.754,0,0,0-.748-.754Z" transform="translate(-12.228 -21.614)"/><path d="M25.594,35.37a.754.754,0,1,0,.754.754A.754.754,0,0,0,25.594,35.37Z" transform="translate(-15.179 -21.614)"/><path d="M21.574,20.815a3.464,3.464,0,0,0,.113-5.03V11.051a.652.652,0,0,0-.647-.657H14.955V8.937a.652.652,0,0,0-.647-.657H12.012a.652.652,0,0,0-.647.657v1.458H8.717a.652.652,0,0,0-.647.657V19.42a.652.652,0,0,0,.647.657h7.746a3.354,3.354,0,0,0,3.982,1.405l.886,1.556a.64.64,0,0,0,.884.24.662.662,0,0,0,.236-.9Zm-5.622-2.571a3.432,3.432,0,0,0,.039.519H9.365V11.708h2V12.5h-.647a.648.648,0,0,0-.612.44.662.662,0,0,0,.207.732l2.441,1.953a.642.642,0,0,0,.4.141.658.658,0,0,0,.395-.141l2.437-1.953a.662.662,0,0,0,.21-.731.648.648,0,0,0-.612-.441h-.647v-.788h5.438v3.283a3.34,3.34,0,0,0-3.04.475,3.443,3.443,0,0,0-1.4,2.778ZM20.9,19.636a2.014,2.014,0,0,1-.5.424h0l-.029.016a1.808,1.808,0,0,1-.576.233,1.935,1.935,0,0,1-.46.053,2.021,2.021,0,0,1-1.042-.286,2.115,2.115,0,0,1-.971-1.313,2.114,2.114,0,0,1,2.02-2.633,2.021,2.021,0,0,1,1.062.3,2.122,2.122,0,0,1,.508,3.208Z" transform="translate(-3.039 -3.119)"/></svg>